<svg xmlns="http://www.w3.org/2000/svg" viewBox="0 0 1080 1920" role="img" aria-label="爆了么短视频封面样例">
  <defs>
    <linearGradient id="bg" x1="0" x2="1" y1="0" y2="1">
      <stop offset="0" stop-color="#071018"/>
      <stop offset="0.48" stop-color="#0b0d12"/>
      <stop offset="1" stop-color="#041b24"/>
    </linearGradient>
    <linearGradient id="cyan" x1="0" x2="1">
      <stop offset="0" stop-color="#64d3ff"/>
      <stop offset="1" stop-color="#a7f3ff"/>
    </linearGradient>
    <filter id="glow" x="-30%" y="-30%" width="160%" height="160%">
      <feGaussianBlur stdDeviation="18" result="blur"/>
      <feMerge>
        <feMergeNode in="blur"/>
        <feMergeNode in="SourceGraphic"/>
      </feMerge>
    </filter>
  </defs>
  <rect width="1080" height="1920" fill="url(#bg)"/>
  <g opacity="0.2" stroke="#ffffff" stroke-width="1">
    <path d="M120 0v1920M300 0v1920M480 0v1920M660 0v1920M840 0v1920M1020 0v1920"/>
    <path d="M0 180h1080M0 360h1080M0 540h1080M0 720h1080M0 900h1080M0 1080h1080M0 1260h1080M0 1440h1080M0 1620h1080"/>
  </g>
  <circle cx="825" cy="290" r="210" fill="#64d3ff" opacity="0.18" filter="url(#glow)"/>
  <circle cx="205" cy="1500" r="260" fill="#64d3ff" opacity="0.1" filter="url(#glow)"/>
  <rect x="88" y="112" width="904" height="1696" rx="54" fill="none" stroke="#ffffff" stroke-opacity="0.16" stroke-width="3"/>
  <text x="118" y="206" fill="#ffffff" fill-opacity="0.72" font-family="PingFang SC, Microsoft YaHei, sans-serif" font-size="32" letter-spacing="8">BAO LE ME</text>
  <text x="118" y="312" fill="#64d3ff" font-family="PingFang SC, Microsoft YaHei, sans-serif" font-size="40" font-weight="700">抖音编导脑</text>
  <text x="118" y="530" fill="#ffffff" font-family="PingFang SC, Microsoft YaHei, sans-serif" font-size="104" font-weight="900">别先下单</text>
  <text x="118" y="658" fill="#ffffff" font-family="PingFang SC, Microsoft YaHei, sans-serif" font-size="104" font-weight="900">先看这三点</text>
  <rect x="118" y="746" width="432" height="4" fill="url(#cyan)"/>
  <g transform="translate(118 880)">
    <rect width="844" height="450" rx="34" fill="#ffffff" fill-opacity="0.055" stroke="#ffffff" stroke-opacity="0.16"/>
    <text x="42" y="88" fill="#64d3ff" font-family="PingFang SC, Microsoft YaHei, sans-serif" font-size="34" font-weight="700">镜头提示</text>
    <text x="42" y="170" fill="#ffffff" fill-opacity="0.8" font-family="PingFang SC, Microsoft YaHei, sans-serif" font-size="46" font-weight="800">真实现场 + 判断标准</text>
    <text x="42" y="254" fill="#ffffff" fill-opacity="0.52" font-family="PingFang SC, Microsoft YaHei, sans-serif" font-size="32">白板拆解 / 样例证据 / 评论区 CTA</text>
    <rect x="42" y="320" width="176" height="54" rx="18" fill="#64d3ff"/>
    <text x="75" y="358" fill="#061018" font-family="PingFang SC, Microsoft YaHei, sans-serif" font-size="24" font-weight="800">可直接拍</text>
  </g>
  <text x="118" y="1552" fill="#ffffff" fill-opacity="0.78" font-family="PingFang SC, Microsoft YaHei, sans-serif" font-size="38">封面 / 分镜 / 口播 / 避雷</text>
  <text x="118" y="1624" fill="#ffffff" fill-opacity="0.42" font-family="PingFang SC, Microsoft YaHei, sans-serif" font-size="28">AI 推断样例 · 非实时平台数据</text>
</svg>
